<?xml version="1.0" encoding="utf-8"?>
<svg viewBox="0 0 500 500" xmlns="http://www.w3.org/2000/svg">
  <path opacity="1.00" d="M -96.568 -208.708 C -94.478 -211.288 -91.108 -212.248 -87.918 -212.498 C -81.618 -212.948 -75.298 -212.298 -69.068 -211.358 C -54.908 -209.128 -41.028 -205.478 -27.308 -201.368 C 0.412 -192.928 27.442 -182.238 53.602 -169.768 C 77.682 -158.188 101.082 -144.938 122.422 -128.798 C 183.582 -165.468 253.632 -187.908 325.052 -190.718 C 372.432 -192.728 420.122 -186.338 465.372 -172.168 C 499.372 -161.598 532.002 -146.738 562.522 -128.418 C 592.232 -150.918 625.702 -167.938 659.952 -182.368 C 688.552 -194.038 717.892 -204.358 748.272 -210.288 C 757.432 -211.808 766.852 -213.588 776.132 -212.068 C 782.282 -210.948 785.052 -204.608 787.682 -199.658 C 795.492 -182.668 799.862 -164.338 803.852 -146.138 C 811.742 -107.988 815.882 -69.028 815.802 -30.058 C 815.622 -8.188 814.032 13.772 809.282 35.162 C 806.162 48.802 801.772 62.322 794.492 74.352 C 787.292 86.372 778.332 97.302 768.272 107.042 C 795.342 167.122 812.032 232.092 815.242 297.992 C 817.252 341.032 814.162 384.652 802.342 426.222 C 792.752 460.002 776.952 492.182 754.852 519.562 C 731.412 548.882 701.202 572.352 668.202 590.012 C 630.762 610.092 589.952 623.152 548.552 632.192 C 487.682 645.242 425.332 649.932 363.172 650.872 C 291.062 651.732 218.532 648.462 147.612 634.652 C 108.112 626.802 69.082 615.522 32.572 598.332 C -1.278 582.402 -32.888 561.042 -58.448 533.572 C -81.698 508.762 -99.548 479.062 -111.228 447.162 C -126.318 406.262 -131.758 362.362 -131.528 318.942 C -131.178 245.642 -113.808 172.852 -83.618 106.192 C -94.818 95.272 -104.638 82.842 -112.028 69.032 C -119.718 54.092 -123.818 37.592 -126.498 21.092 C -130.598 -5.058 -130.938 -31.648 -129.688 -58.038 C -128.008 -89.978 -123.868 -121.808 -116.888 -153.028 C -113.658 -167.108 -109.928 -181.138 -104.518 -194.558 C -102.368 -199.518 -100.128 -204.578 -96.568 -208.708 M -65.258 -133.348 C -69.258 -127.588 -70.898 -120.598 -72.688 -113.918 C -78.368 -89.388 -80.408 -64.178 -81.508 -39.078 C -82.878 1.462 -81.058 42.382 -72.428 82.112 C -39.218 17.512 6.932 -40.548 63.082 -86.708 C 35.622 -102.818 6.922 -116.948 -22.998 -127.888 C -33.398 -131.478 -43.948 -135.098 -54.948 -136.228 C -58.498 -136.468 -63.018 -136.718 -65.258 -133.348 M 727.112 -134.058 C 709.742 -129.518 693.062 -122.738 676.702 -115.458 C 657.682 -106.908 639.172 -97.258 621.162 -86.758 C 677.292 -40.548 723.492 17.472 756.682 82.122 C 765.172 43.032 767.052 2.792 765.832 -37.098 C 764.982 -59.778 763.132 -82.478 758.922 -104.798 C 757.192 -113.248 755.362 -121.778 751.732 -129.648 C 750.372 -132.428 748.512 -135.668 745.112 -136.098 C 739.052 -136.948 732.982 -135.378 727.112 -134.058 M 43.632 151.792 C 30.702 153.972 18.772 161.272 10.842 171.692 C 2.942 181.912 -0.908 195.142 0.212 208.012 C 1.222 220.982 7.342 233.432 16.902 242.222 C 27.072 251.742 41.142 256.952 55.072 256.222 C 70.962 255.612 86.252 247.202 95.442 234.242 C 103.962 222.512 107.182 207.162 104.192 192.992 C 101.332 178.722 92.182 165.912 79.692 158.502 C 68.992 152.012 55.932 149.652 43.632 151.792 M 622.682 151.782 C 609.972 153.902 598.212 160.952 590.262 171.072 C 581.852 181.642 577.832 195.542 579.252 208.972 C 580.472 221.632 586.562 233.712 595.922 242.292 C 605.882 251.562 619.532 256.732 633.142 256.252 C 649.082 255.912 664.562 247.712 673.942 234.852 C 681.772 224.362 685.392 210.872 683.912 197.872 C 682.402 183.422 674.522 169.822 662.792 161.272 C 651.452 152.802 636.602 149.352 622.682 151.782 M 303.432 217.362 C 264.812 218.532 225.942 221.102 188.242 230.092 C 168.052 235.022 148.102 242.052 130.562 253.402 C 116.782 262.292 104.832 274.192 96.532 288.382 C 87.962 302.832 83.172 319.232 80.862 335.792 C 78.672 351.762 78.542 367.982 79.702 384.052 C 82.882 426.812 96.702 468.922 120.582 504.622 C 137.972 530.692 160.752 553.152 187.152 570.042 C 216.972 589.312 251.132 601.302 286.072 607.082 C 319.982 612.582 354.712 612.992 388.752 608.482 C 424.382 603.732 459.422 592.692 490.362 574.222 C 515.472 559.282 537.692 539.522 555.362 516.252 C 591.432 468.912 608.542 408.102 604.742 348.882 C 603.452 330.322 599.642 311.672 591.292 294.942 C 584.172 280.542 573.552 267.952 560.712 258.332 C 545.212 246.622 527.052 238.932 508.522 233.452 C 471.062 222.622 431.922 219.452 393.132 217.762 C 363.252 216.642 333.322 216.522 303.432 217.362 Z" style="fill: rgb(255, 154, 175);"/>
  <path opacity="1.00" d="M -65.258 -133.348 C -63.018 -136.718 -58.498 -136.468 -54.948 -136.228 C -43.948 -135.098 -33.398 -131.478 -22.998 -127.888 C 6.922 -116.948 35.622 -102.818 63.082 -86.708 C 6.932 -40.548 -39.218 17.512 -72.428 82.112 C -81.058 42.382 -82.878 1.462 -81.508 -39.078 C -80.408 -64.178 -78.368 -89.388 -72.688 -113.918 C -70.898 -120.598 -69.258 -127.588 -65.258 -133.348 Z" style="fill: rgb(227, 58, 101);"/>
  <path opacity="1.00" d="M 727.112 -134.058 C 732.982 -135.378 739.052 -136.948 745.112 -136.098 C 748.512 -135.668 750.372 -132.428 751.732 -129.648 C 755.362 -121.778 757.192 -113.248 758.922 -104.798 C 763.132 -82.478 764.982 -59.778 765.832 -37.098 C 767.052 2.792 765.172 43.032 756.682 82.122 C 723.492 17.472 677.292 -40.548 621.162 -86.758 C 639.172 -97.258 657.682 -106.908 676.702 -115.458 C 693.062 -122.738 709.742 -129.518 727.112 -134.058 Z" style="fill: rgb(227, 58, 101);"/>
  <path opacity="1.00" d="M 303.432 217.362 C 333.322 216.522 363.252 216.642 393.132 217.762 C 431.922 219.452 471.062 222.622 508.522 233.452 C 527.052 238.932 545.212 246.622 560.712 258.332 C 573.552 267.952 584.172 280.542 591.292 294.942 C 599.642 311.672 603.452 330.322 604.742 348.882 C 608.542 408.102 591.432 468.912 555.362 516.252 C 537.692 539.522 515.472 559.282 490.362 574.222 C 459.422 592.692 424.382 603.732 388.752 608.482 C 354.712 612.992 319.982 612.582 286.072 607.082 C 251.132 601.302 216.972 589.312 187.152 570.042 C 160.752 553.152 137.972 530.692 120.582 504.622 C 96.702 468.922 82.882 426.812 79.702 384.052 C 78.542 367.982 78.672 351.762 80.862 335.792 C 83.172 319.232 87.962 302.832 96.532 288.382 C 104.832 274.192 116.782 262.292 130.562 253.402 C 148.102 242.052 168.052 235.022 188.242 230.092 C 225.942 221.102 264.812 218.532 303.432 217.362 M 213.262 341.222 C 206.552 342.192 199.782 344.852 195.262 350.092 C 189.322 356.902 187.192 366.032 185.872 374.742 C 184.022 388.532 184.072 402.502 184.502 416.392 C 185.192 429.002 185.972 442.372 192.532 453.522 C 197.242 461.582 206.512 465.622 215.512 466.392 C 225.562 467.152 236.342 467.262 245.512 462.472 C 253.282 458.382 257.622 450.082 259.682 441.862 C 263.122 428.192 263.142 413.952 263.142 399.942 C 262.882 386.982 262.552 373.732 258.442 361.322 C 255.972 353.832 250.882 346.842 243.402 343.792 C 233.912 339.912 223.282 340.062 213.262 341.222 M 450.352 341.192 C 443.592 342.132 436.762 344.762 432.182 350.002 C 426.392 356.562 424.202 365.362 422.862 373.792 C 421.042 386.092 421.002 398.582 421.172 410.992 C 421.512 422.772 422.052 434.802 425.862 446.062 C 428.252 453.242 433.032 459.972 440.092 463.152 C 449.112 467.252 459.362 467.162 469.042 466.352 C 478.422 465.582 487.952 460.952 492.432 452.332 C 498.932 439.982 499.352 425.602 499.902 411.952 C 500.072 396.642 500.262 381.092 496.702 366.102 C 494.642 357.412 490.062 348.542 481.702 344.482 C 472.002 339.862 460.802 340.052 450.352 341.192 Z" style="fill: rgb(227, 58, 101);"/>
  <path opacity="1.00" d="M 43.632 151.792 C 55.932 149.652 68.992 152.012 79.692 158.502 C 92.182 165.912 101.332 178.722 104.192 192.992 C 107.182 207.162 103.962 222.512 95.442 234.242 C 86.252 247.202 70.962 255.612 55.072 256.222 C 41.142 256.952 27.072 251.742 16.902 242.222 C 7.342 233.432 1.222 220.982 0.212 208.012 C -0.908 195.142 2.942 181.912 10.842 171.692 C 18.772 161.272 30.702 153.972 43.632 151.792 Z" style="fill: rgb(51, 51, 51);"/>
  <path opacity="1.00" d="M 622.682 151.782 C 636.602 149.352 651.452 152.802 662.792 161.272 C 674.522 169.822 682.402 183.422 683.912 197.872 C 685.392 210.872 681.772 224.362 673.942 234.852 C 664.562 247.712 649.082 255.912 633.142 256.252 C 619.532 256.732 605.882 251.562 595.922 242.292 C 586.562 233.712 580.472 221.632 579.252 208.972 C 577.832 195.542 581.852 181.642 590.262 171.072 C 598.212 160.952 609.972 153.902 622.682 151.782 Z" style="fill: rgb(51, 51, 51);"/>
  <path opacity="1.00" d="M 213.262 341.222 C 223.282 340.062 233.912 339.912 243.402 343.792 C 250.882 346.842 255.972 353.832 258.442 361.322 C 262.552 373.732 262.882 386.982 263.142 399.942 C 263.142 413.952 263.122 428.192 259.682 441.862 C 257.622 450.082 253.282 458.382 245.512 462.472 C 236.342 467.262 225.562 467.152 215.512 466.392 C 206.512 465.622 197.242 461.582 192.532 453.522 C 185.972 442.372 185.192 429.002 184.502 416.392 C 184.072 402.502 184.022 388.532 185.872 374.742 C 187.192 366.032 189.322 356.902 195.262 350.092 C 199.782 344.852 206.552 342.192 213.262 341.222 Z" style="fill: rgb(51, 51, 51);"/>
  <path opacity="1.00" d="M 450.352 341.192 C 460.802 340.052 472.002 339.862 481.702 344.482 C 490.062 348.542 494.642 357.412 496.702 366.102 C 500.262 381.092 500.072 396.642 499.902 411.952 C 499.352 425.602 498.932 439.982 492.432 452.332 C 487.952 460.952 478.422 465.582 469.042 466.352 C 459.362 467.162 449.112 467.252 440.092 463.152 C 433.032 459.972 428.252 453.242 425.862 446.062 C 422.052 434.802 421.512 422.772 421.172 410.992 C 421.002 398.582 421.042 386.092 422.862 373.792 C 424.202 365.362 426.392 356.562 432.182 350.002 C 436.762 344.762 443.592 342.132 450.352 341.192 Z" style="fill: rgb(51, 51, 51);"/>
</svg>